<?xml version="1.0" standalone="no"?>
<!DOCTYPE svg PUBLIC "-//W3C//DTD SVG 20010904//EN"
 "http://www.w3.org/TR/2001/REC-SVG-20010904/DTD/svg10.dtd">
<svg version="1.0" xmlns="http://www.w3.org/2000/svg"
 width="1280.000000pt" height="1280.000000pt" viewBox="0 0 1280.000000 1280.000000"
 preserveAspectRatio="xMidYMid meet">

<g transform="translate(0.000000,1280.000000) scale(0.100000,-0.100000)"
fill="#000000" stroke="none">
<path d="M5341 12793 c9 -2 22 -15 29 -28 11 -20 11 -27 -1 -41 -15 -18 -21
-124 -7 -124 4 0 8 -7 8 -16 0 -11 -6 -15 -20 -11 -13 3 -20 0 -20 -9 0 -8 10
-14 26 -14 16 0 24 -5 21 -12 -2 -7 -10 -12 -16 -10 -14 3 -14 -15 0 -23 6 -4
8 -13 5 -21 -3 -9 1 -14 12 -14 16 -1 16 -1 0 -11 -19 -10 -24 -44 -9 -53 4
-3 6 -16 4 -30 -3 -13 0 -27 6 -30 18 -12 12 -26 -11 -27 -13 0 -18 -3 -12 -5
6 -2 9 -19 7 -37 -4 -30 -3 -31 11 -13 9 11 19 17 22 13 4 -4 2 -13 -5 -21 -9
-11 -9 -15 1 -20 7 -3 3 -3 -8 -1 -21 5 -22 3 -19 -52 2 -32 4 -58 5 -58 1 0
3 -17 4 -39 2 -30 -1 -40 -16 -44 -10 -2 -18 -9 -18 -14 0 -5 9 -7 19 -3 23 7
37 -11 22 -29 -12 -14 -12 -20 -12 -144 0 -69 -2 -83 -14 -78 -8 3 -17 1 -20
-4 -4 -6 3 -10 14 -10 14 0 21 -6 21 -20 0 -14 -5 -18 -16 -13 -12 4 -15 1
-12 -13 2 -10 10 -18 18 -17 12 2 16 -11 17 -57 2 -56 1 -60 -20 -60 -12 0
-17 -4 -12 -8 21 -14 36 -64 25 -77 -8 -9 -8 -15 0 -20 6 -3 8 -11 4 -16 -3
-5 -10 -7 -15 -4 -5 4 -9 3 -10 -2 -5 -51 -5 -70 2 -78 6 -8 5 -80 -1 -80 -7
0 -4 -61 3 -66 6 -4 5 -19 -2 -39 -16 -48 -14 -78 9 -92 24 -15 26 -30 4 -26
-12 2 -17 -6 -20 -27 -2 -18 0 -25 5 -17 4 7 11 -39 14 -105 4 -78 3 -119 -4
-122 -6 -2 -3 -11 7 -22 9 -10 12 -19 7 -19 -6 0 -13 -9 -16 -20 -3 -11 -1
-18 3 -15 5 3 12 0 15 -6 4 -6 -2 -13 -14 -16 -27 -7 -27 -40 -1 -48 20 -6 20
-7 -2 -26 -16 -14 -19 -22 -10 -25 13 -6 17 -34 5 -34 -5 0 -8 -20 -9 -45 -1
-35 3 -46 18 -50 10 -4 18 -11 18 -17 0 -5 -7 -8 -15 -5 -21 9 -28 -9 -13 -33
11 -17 11 -22 -2 -30 -13 -9 -13 -11 0 -21 11 -8 12 -12 3 -16 -18 -7 -16 -26
2 -19 9 3 15 0 15 -9 0 -8 -6 -12 -14 -9 -23 9 -31 -18 -11 -33 18 -13 18 -13
-1 -28 -18 -13 -18 -14 -1 -15 15 0 17 -6 12 -34 -14 -70 -12 -100 6 -116 17
-14 17 -17 -1 -52 -10 -21 -14 -38 -9 -38 5 0 6 -14 2 -30 -5 -27 -3 -29 13
-23 17 6 17 5 6 -9 -10 -13 -11 -22 -2 -37 7 -15 8 -27 1 -39 -6 -9 -11 -11
-11 -4 0 20 -20 13 -20 -8 0 -13 5 -18 15 -14 12 5 15 -3 15 -35 0 -23 -4 -41
-10 -41 -5 0 -10 -4 -10 -10 0 -5 7 -10 15 -10 8 0 15 -4 15 -10 0 -5 -4 -10
-10 -10 -5 0 -10 -7 -10 -16 0 -8 -4 -13 -9 -9 -5 3 -12 1 -16 -5 -3 -6 3 -10
16 -10 19 0 21 -4 16 -35 -4 -25 -1 -37 10 -43 13 -8 13 -11 -1 -25 -19 -18
-23 -171 -6 -182 8 -5 7 -11 0 -20 -7 -8 -9 -23 -6 -33 8 -23 -3 -54 -15 -46
-5 3 -12 -2 -15 -10 -3 -9 -14 -16 -24 -16 -11 0 -22 -4 -25 -10 -7 -12 1561
-12 1695 -1 47 5 79 9 72 9 -8 1 -10 7 -6 15 4 6 4 9 -1 5 -4 -4 -16 -3 -27 3
-11 6 -27 7 -36 3 -13 -6 -8 -9 18 -14 l35 -7 -37 -2 c-36 -1 -38 1 -38 29 0
23 5 30 19 30 22 0 38 19 25 29 -11 7 -10 29 1 54 5 12 1 24 -10 37 -13 14
-15 29 -11 64 5 37 4 46 -8 46 -8 0 -16 -10 -18 -22 -2 -13 -3 22 -3 77 0 81
3 99 14 97 15 -3 31 15 31 36 0 6 -6 12 -14 12 -8 0 -17 -6 -19 -12 -3 -8 -6
-6 -6 5 -1 9 6 17 14 17 21 0 19 17 -4 29 -21 12 -34 48 -20 57 5 3 9 -6 9
-21 0 -23 2 -25 21 -14 15 8 18 13 10 18 -7 5 -11 12 -10 17 1 5 -1 17 -6 27
-4 10 -2 23 4 31 8 10 8 16 -4 26 -12 10 -15 10 -15 -4 0 -9 -4 -16 -10 -16
-16 0 -12 30 6 47 11 12 14 25 9 47 -4 17 -6 51 -6 74 1 26 -2 41 -7 38 -6 -3
-13 1 -16 10 -9 22 3 32 14 14 7 -11 10 0 10 34 0 40 2 46 14 37 10 -9 15 -8
19 3 4 9 1 18 -4 22 -6 3 -8 15 -6 26 3 11 0 21 -9 25 -8 3 -14 14 -14 25 0
14 5 18 15 14 10 -4 15 1 15 15 0 13 -6 19 -17 17 -13 -2 -18 4 -20 22 -3 42
4 55 23 39 14 -12 16 -11 12 6 -2 11 -11 19 -20 19 -15 -1 -16 7 -12 70 4 48
11 74 20 79 12 7 13 11 3 24 -12 13 -14 13 -19 -3 -4 -10 -7 3 -8 31 0 33 3
44 9 34 14 -21 41 18 33 45 -4 12 -7 48 -7 81 1 33 -3 68 -8 77 -6 10 -5 19 1
23 16 10 12 38 -4 32 -20 -8 -26 92 -10 158 13 57 13 223 0 244 -11 16 -15 62
-6 56 3 -2 7 18 8 43 1 26 5 70 8 97 3 28 7 87 9 133 3 66 1 82 -10 82 -8 0
-17 11 -21 24 -10 40 -10 146 -1 146 5 0 7 14 4 30 -4 17 -2 30 3 30 14 0 23
41 11 53 -6 6 -11 19 -11 29 0 10 -3 17 -8 15 -4 -1 -7 3 -7 8 0 6 7 9 15 8
10 -1 16 8 17 28 1 16 -2 29 -7 29 -13 0 -23 61 -12 72 6 6 12 6 16 -1 9 -14
26 -14 26 -1 0 6 -6 10 -14 10 -18 0 -26 22 -19 51 4 15 3 20 -5 15 -7 -4 -12
-2 -12 3 0 6 6 11 14 11 11 0 14 16 13 70 -2 66 -17 105 -31 81 -4 -6 -4 -17
0 -23 12 -20 12 -49 0 -45 -14 5 -16 58 -2 75 5 8 9 28 8 44 -2 22 1 29 11 25
8 -3 19 -2 26 2 9 6 4 13 -14 25 -29 19 -24 40 6 31 17 -6 19 -3 16 19 -3 25
-22 38 -22 16 0 -5 -4 -9 -10 -7 -5 1 -9 9 -8 17 1 8 -4 18 -10 23 -8 5 -5 7
8 5 15 -2 20 3 19 19 -1 29 53 54 67 32 7 -11 9 -11 9 -1 0 8 -9 16 -20 19
-23 6 -27 23 -5 23 8 0 15 7 15 15 0 13 -101 15 -857 14 -472 -1 -851 -3 -842
-6z m59 -133 c0 -5 -2 -10 -4 -10 -3 0 -8 5 -11 10 -3 6 -1 10 4 10 6 0 11 -4
11 -10z m1560 -304 c0 -8 -4 -18 -10 -21 -5 -3 -10 3 -10 14 0 12 5 21 10 21
6 0 10 -6 10 -14z m-3 -222 c-9 -9 -28 6 -21 18 4 6 10 6 17 -1 6 -6 8 -13 4
-17z m-27 -364 c0 -5 -5 -10 -11 -10 -5 0 -7 5 -4 10 3 6 8 10 11 10 2 0 4 -4
4 -10z m38 -73 c2 -23 0 -67 -4 -97 -7 -54 -7 -55 -15 -20 -4 20 -3 37 2 41 6
4 6 22 0 52 -10 43 -6 85 7 72 3 -3 7 -24 10 -48z m-8 -196 c0 -11 -4 -23 -10
-26 -6 -4 -10 5 -10 19 0 14 5 26 10 26 6 0 10 -9 10 -19z m-1580 -91 c0 -5
-4 -10 -10 -10 -5 0 -10 5 -10 10 0 6 5 10 10 10 6 0 10 -4 10 -10z m1580
-105 c0 -8 -4 -15 -10 -15 -5 0 -10 7 -10 15 0 8 5 15 10 15 6 0 10 -7 10 -15z
m-1580 -40 c0 -8 -4 -15 -10 -15 -5 0 -10 7 -10 15 0 8 5 15 10 15 6 0 10 -7
10 -15z m1577 -7 c-3 -8 -6 -5 -6 6 -1 11 2 17 5 13 3 -3 4 -12 1 -19z m-10
-50 c-3 -7 -5 -2 -5 12 0 14 2 19 5 13 2 -7 2 -19 0 -25z m-1567 -39 c0 -5 -4
-9 -10 -9 -5 0 -10 7 -10 16 0 8 5 12 10 9 6 -3 10 -10 10 -16z m1571 8 c-1
-12 -15 -9 -19 4 -3 6 1 10 8 8 6 -3 11 -8 11 -12z m9 -37 c0 -5 -2 -10 -4
-10 -3 0 -8 5 -11 10 -3 6 -1 10 4 10 6 0 11 -4 11 -10z m-1586 -21 c-6 -11
-24 -2 -24 11 0 5 7 7 15 4 8 -4 12 -10 9 -15z m1583 -261 c-2 -13 -4 -5 -4
17 -1 22 1 32 4 23 2 -10 2 -28 0 -40z m13 -48 c0 -5 -5 -10 -11 -10 -5 0 -7
5 -4 10 3 6 8 10 11 10 2 0 4 -4 4 -10z m10 -64 c0 -8 -4 -18 -10 -21 -5 -3
-10 3 -10 14 0 12 5 21 10 21 6 0 10 -6 10 -14z m-1600 -205 c0 -11 -4 -23
-10 -26 -6 -4 -10 5 -10 19 0 14 5 26 10 26 6 0 10 -9 10 -19z m1577 -293 c-3
-7 -5 -2 -5 12 0 14 2 19 5 13 2 -7 2 -19 0 -25z m-1590 -120 c-3 -8 -6 -5 -6
6 -1 11 2 17 5 13 3 -3 4 -12 1 -19z m1593 -123 c0 -8 -4 -15 -9 -15 -13 0
-22 16 -14 24 11 11 23 6 23 -9z m-1573 -17 c-3 -8 -6 -5 -6 6 -1 11 2 17 5
13 3 -3 4 -12 1 -19z m1570 -510 c-3 -7 -5 -2 -5 12 0 14 2 19 5 13 2 -7 2
-19 0 -25z m0 -90 c-3 -8 -6 -5 -6 6 -1 11 2 17 5 13 3 -3 4 -12 1 -19z
m-1557 -32 c0 -3 -4 -8 -10 -11 -5 -3 -10 -1 -10 4 0 6 5 11 10 11 6 0 10 -2
10 -4z"/>
<path d="M5343 12740 c0 -16 4 -27 9 -24 4 3 8 16 8 30 0 13 -4 24 -8 24 -5 0
-9 -13 -9 -30z"/>
<path d="M7000 12690 c0 -5 5 -10 10 -10 6 0 10 5 10 10 0 6 -4 10 -10 10 -5
0 -10 -4 -10 -10z"/>
<path d="M5310 12520 c0 -5 5 -10 10 -10 6 0 10 5 10 10 0 6 -4 10 -10 10 -5
0 -10 -4 -10 -10z"/>
<path d="M6962 12518 c7 -19 38 -22 38 -4 0 10 -9 16 -21 16 -12 0 -19 -5 -17
-12z"/>
<path d="M5335 12080 c-3 -5 -2 -10 4 -10 5 0 13 5 16 10 3 6 2 10 -4 10 -5 0
-13 -4 -16 -10z"/>
<path d="M6967 11930 c-6 -25 7 -35 22 -16 8 10 8 16 -3 25 -11 9 -15 7 -19
-9z"/>
<path d="M6966 11853 c-11 -11 -6 -23 9 -23 8 0 15 4 15 9 0 13 -16 22 -24 14z"/>
<path d="M5335 11800 c3 -5 8 -10 11 -10 2 0 4 5 4 10 0 6 -5 10 -11 10 -5 0
-7 -4 -4 -10z"/>
<path d="M6965 11800 c3 -5 10 -10 16 -10 5 0 9 5 9 10 0 6 -7 10 -16 10 -8 0
-12 -4 -9 -10z"/>
<path d="M5345 11670 c3 -5 8 -10 11 -10 2 0 4 5 4 10 0 6 -5 10 -11 10 -5 0
-7 -4 -4 -10z"/>
<path d="M5340 11631 c0 -5 7 -14 15 -21 16 -14 18 -10 9 14 -6 17 -24 22 -24
7z"/>
<path d="M5330 11511 c0 -11 5 -23 10 -26 6 -3 10 3 10 14 0 11 -4 23 -10 26
-5 3 -10 -3 -10 -14z"/>
<path d="M6967 11380 c-4 -17 -2 -18 14 -9 11 5 17 14 14 20 -10 15 -22 10
-28 -11z"/>
<path d="M6971 11071 c-9 -15 -10 -26 -3 -33 17 -17 28 -4 22 27 l-6 30 -13
-24z"/>
<path d="M6970 10975 c0 -8 7 -15 15 -15 8 0 15 7 15 15 0 8 -7 15 -15 15 -8
0 -15 -7 -15 -15z"/>
<path d="M5331 10873 c0 -5 4 -17 9 -28 8 -18 9 -17 9 8 1 15 -3 27 -9 27 -5
0 -10 -3 -9 -7z"/>
<path d="M6975 10570 c-3 -5 -1 -10 4 -10 6 0 11 5 11 10 0 6 -2 10 -4 10 -3
0 -8 -4 -11 -10z"/>
<path d="M6975 10530 c-4 -6 -3 -16 3 -22 6 -6 12 -6 17 2 4 6 3 16 -3 22 -6
6 -12 6 -17 -2z"/>
<path d="M6975 10191 c-3 -5 -1 -12 5 -16 5 -3 10 1 10 9 0 18 -6 21 -15 7z"/>
<path d="M5330 10061 c0 -6 5 -13 10 -16 6 -3 10 1 10 9 0 9 -4 16 -10 16 -5
0 -10 -4 -10 -9z"/>
<path d="M6960 9690 c0 -5 5 -10 10 -10 6 0 10 5 10 10 0 6 -4 10 -10 10 -5 0
-10 -4 -10 -10z"/>
<path d="M6970 9638 c0 -7 5 -20 10 -28 8 -12 10 -9 10 13 0 15 -4 27 -10 27
-5 0 -10 -6 -10 -12z"/>
<path d="M7001 9474 c0 -11 3 -14 6 -6 3 7 2 16 -1 19 -3 4 -6 -2 -5 -13z"/>
<path d="M8785 8294 c-268 -50 -454 -160 -574 -339 -84 -126 -121 -260 -121
-439 0 -267 84 -446 280 -599 79 -61 318 -184 500 -258 329 -134 460 -258 460
-437 0 -132 -70 -242 -188 -295 -205 -92 -615 -36 -944 129 -50 25 -93 43 -96
39 -3 -3 -8 -111 -10 -239 -4 -271 -19 -236 125 -287 352 -125 723 -151 1048
-74 278 66 479 225 570 452 76 188 73 481 -5 650 -40 86 -69 127 -152 211
-123 124 -264 205 -698 401 -216 97 -304 176 -336 300 -31 123 15 236 126 306
64 41 152 59 285 59 182 0 369 -44 546 -128 42 -20 79 -36 82 -36 4 0 7 105 7
234 0 188 -3 237 -14 249 -18 18 -169 61 -311 88 -146 28 -461 36 -580 13z"/>
<path d="M3125 8250 c-3 -5 -5 -628 -4 -1385 l1 -1375 279 0 279 0 0 1385 0
1385 -274 0 c-169 0 -277 -4 -281 -10z"/>
<path d="M4450 6875 l0 -1385 245 0 245 0 0 1126 c0 620 2 1129 5 1132 13 13
12 14 190 -438 42 -107 87 -222 100 -255 13 -33 64 -163 113 -290 50 -126 147
-378 216 -560 70 -181 137 -357 150 -390 l24 -60 227 0 227 0 100 250 c55 138
155 396 224 575 68 179 140 366 159 415 138 359 251 658 265 703 9 29 21 52
26 50 5 -2 7 -446 5 -1130 l-4 -1127 257 -3 c141 -2 261 -1 266 0 7 3 10 481
10 1388 l0 1384 -399 0 c-307 0 -401 -3 -408 -12 -5 -7 -28 -62 -50 -123 -23
-60 -136 -364 -253 -675 -116 -311 -234 -628 -262 -705 -88 -247 -116 -320
-125 -320 -4 0 -29 56 -56 125 -26 69 -73 190 -104 270 -31 80 -87 226 -125
325 -39 99 -89 230 -113 290 -24 61 -102 263 -174 450 -72 187 -135 347 -140
355 -7 13 -67 15 -425 18 l-416 2 0 -1385z"/>
<path d="M10572 6420 c0 -14 2 -19 5 -12 2 6 2 18 0 25 -3 6 -5 1 -5 -13z"/>
<path d="M10573 6200 c0 -25 2 -35 4 -22 2 12 2 32 0 45 -2 12 -4 2 -4 -23z"/>
<path d="M10573 5960 c0 -25 2 -35 4 -22 2 12 2 32 0 45 -2 12 -4 2 -4 -23z"/>
<path d="M10573 5640 c0 -25 2 -35 4 -22 2 12 2 32 0 45 -2 12 -4 2 -4 -23z"/>
<path d="M10573 5440 c0 -47 2 -66 4 -42 2 23 2 61 0 85 -2 23 -4 4 -4 -43z"/>
<path d="M10571 5294 c0 -11 3 -14 6 -6 3 7 2 16 -1 19 -3 4 -6 -2 -5 -13z"/>
<path d="M5430 4550 c-85 -3 -147 -8 -137 -12 10 -5 31 -8 45 -9 l27 -1 -25
-8 c-21 -7 -22 -8 -5 -9 15 -1 17 -3 7 -10 -10 -6 -8 -10 9 -14 22 -6 22 -7 6
-25 -18 -20 -19 -29 -17 -139 1 -58 11 -81 23 -50 3 6 4 -1 3 -18 -1 -22 -6
-29 -18 -27 -15 2 -16 -6 -11 -70 3 -40 10 -76 16 -80 8 -5 6 -12 -8 -23 -19
-14 -19 -16 -2 -29 9 -7 17 -22 16 -32 0 -11 -3 -13 -6 -6 -6 16 -33 16 -33
-1 0 -7 7 -23 16 -35 14 -21 14 -25 0 -47 -13 -20 -14 -29 -4 -44 9 -15 9 -23
0 -34 -10 -11 -10 -21 -1 -41 13 -28 24 -33 32 -13 3 7 6 6 6 -5 1 -20 -15
-32 -24 -18 -9 15 -25 12 -25 -5 0 -7 8 -18 18 -24 14 -8 15 -13 5 -29 -6 -11
-10 -22 -7 -25 3 -2 6 -55 7 -116 1 -61 5 -111 9 -111 4 0 8 -4 8 -9 0 -5 -9
-7 -20 -4 -24 6 -29 -24 -5 -33 11 -5 12 -11 5 -24 -13 -25 -13 -90 0 -90 7 0
7 -6 0 -19 -15 -30 -13 -64 5 -58 8 4 17 2 20 -3 4 -6 -3 -10 -14 -10 -28 0
-32 -12 -20 -51 10 -33 11 -100 4 -204 -2 -27 1 -52 6 -56 15 -9 17 -151 2
-156 -7 -3 -13 -10 -13 -16 1 -7 10 -1 22 13 l21 25 -7 -28 c-4 -17 -2 -34 4
-42 8 -9 8 -15 0 -20 -5 -3 -10 1 -10 9 0 9 -4 16 -10 16 -14 0 -12 -23 3 -39
10 -11 10 -14 0 -18 -18 -6 -16 -23 2 -23 17 0 20 -16 5 -25 -6 -4 -7 -13 -2
-20 13 -25 2 -93 -16 -98 -14 -4 -14 -5 -2 -6 13 -1 16 -15 15 -71 0 -49 -4
-70 -12 -70 -8 0 -13 -14 -13 -35 0 -19 -4 -35 -10 -35 -6 0 -6 -9 0 -24 5
-13 8 -38 8 -56 -1 -21 5 -36 15 -42 22 -12 22 -30 0 -26 -12 2 -17 -2 -14
-12 3 -8 5 -31 7 -50 1 -19 5 -42 8 -51 4 -10 2 -20 -4 -24 -17 -10 8 -35 28
-29 15 5 15 4 -1 -6 -9 -6 -21 -9 -26 -6 -5 4 -7 -3 -4 -15 3 -11 12 -23 19
-26 16 -6 19 -33 5 -33 -6 0 -13 5 -16 10 -4 6 -11 7 -17 4 -7 -4 -6 -9 2 -14
10 -6 10 -15 0 -44 -6 -20 -10 -42 -7 -49 5 -12 6 -11 21 37 10 29 25 6 19
-26 -3 -16 -10 -28 -15 -28 -5 0 -6 -5 -3 -11 4 -5 8 -25 10 -42 2 -18 1 -25
-1 -15 -6 20 -34 32 -47 19 -6 -6 -2 -9 9 -8 15 2 19 -4 18 -31 -2 -33 5 -39
22 -22 6 6 10 3 10 -9 0 -11 -4 -17 -8 -15 -4 3 -8 -4 -8 -14 0 -11 7 -23 16
-26 15 -6 15 -8 1 -24 -24 -27 -43 -246 -20 -238 13 5 23 -15 23 -50 0 -16 -6
-24 -17 -24 -16 -1 -15 -3 4 -19 24 -20 22 -64 -3 -54 -9 3 -12 13 -8 25 5 16
2 19 -13 16 -21 -4 -20 -43 3 -69 10 -11 12 -26 8 -49 -7 -30 -5 -33 14 -28
12 4 20 2 16 -3 -3 -5 -14 -9 -25 -9 -10 0 -19 -4 -19 -10 0 -9 14 -14 33 -11
4 0 7 -4 7 -9 0 -6 -6 -10 -14 -10 -24 0 -29 -20 -11 -40 11 -12 13 -20 6 -25
-18 -11 -12 -35 8 -35 16 0 19 -7 19 -45 -1 -25 -5 -48 -10 -51 -5 -3 -8 -2
-7 3 1 4 1 15 -1 23 -1 11 -4 9 -9 -5 -5 -11 -5 -25 0 -31 5 -6 7 -19 3 -28
-5 -12 -2 -15 10 -10 20 8 20 -6 1 -53 -20 -47 -19 -52 7 -45 14 3 19 2 14 -6
-4 -7 -16 -12 -26 -12 -23 0 -35 -16 -19 -26 6 -3 15 -1 19 6 5 9 9 9 14 1 4
-6 4 -16 1 -21 -4 -6 -1 -17 5 -25 9 -11 9 -15 1 -15 -6 0 -14 7 -17 15 -8 19
-24 19 -24 0 0 -8 9 -20 19 -27 15 -9 17 -16 10 -29 -5 -10 -6 -24 -3 -32 3
-8 1 -18 -5 -22 -11 -6 -15 12 -12 47 1 10 -2 18 -8 18 -17 0 -23 -20 -11 -35
14 -17 30 -206 18 -221 -10 -14 0 -24 17 -17 10 3 9 -9 -6 -49 -34 -89 -35
-97 -4 -63 l28 30 -7 -34 c-3 -18 -6 -38 -6 -43 0 -5 -3 -7 -7 -5 -5 3 -9 -13
-10 -36 0 -22 2 -35 7 -28 5 10 9 9 13 -3 6 -14 87 -16 827 -16 753 0 820 1
820 16 0 9 -8 22 -17 29 -12 9 -17 28 -17 69 -1 31 2 56 7 56 4 0 7 7 7 15 0
8 -7 15 -15 15 -8 0 -15 -6 -15 -12 0 -9 -4 -8 -10 2 -5 8 -7 23 -4 34 4 10 0
22 -7 27 -11 7 -11 11 -2 17 6 4 13 30 16 57 3 41 4 37 5 -22 1 -51 6 -73 15
-73 8 0 12 23 12 80 0 77 -1 79 -22 73 -14 -3 -23 -1 -23 6 0 6 5 11 10 11 6
0 10 9 10 20 0 11 5 20 10 20 6 0 10 9 10 20 0 21 -20 29 -20 8 0 -7 -5 -5
-11 5 -6 10 -8 21 -5 24 3 4 6 1 6 -6 0 -7 4 -9 10 -6 16 10 12 75 -4 81 -8 3
-12 12 -10 19 3 8 12 11 19 9 15 -6 30 12 16 20 -7 5 -8 67 -1 101 5 22 -1 27
-15 15 -13 -10 -15 -9 -15 8 0 14 5 20 14 16 20 -8 26 8 19 50 -4 26 -10 35
-19 32 -8 -3 -14 1 -14 9 0 8 7 15 16 15 13 0 15 7 10 31 -3 17 -6 40 -6 50 0
38 -19 18 -23 -23 l-4 -43 -1 43 c-2 36 1 45 18 49 23 6 27 33 5 33 -8 0 -15
9 -15 21 0 11 4 18 9 15 5 -4 7 3 4 14 -3 11 0 27 7 35 10 12 10 15 -3 15 -8
0 -18 7 -21 16 -11 29 -6 37 13 20 18 -16 19 -15 25 38 8 63 3 79 -25 71 -11
-4 -19 -2 -19 4 0 6 9 11 20 11 11 0 20 3 21 8 0 4 2 18 3 30 3 27 -22 42 -35
21 -6 -9 -9 -10 -9 -2 0 6 10 19 22 27 24 17 31 54 16 73 -7 9 -5 15 7 19 15
6 16 9 3 18 -8 6 -20 21 -26 33 -15 27 -16 77 -2 68 6 -4 8 -15 5 -26 -4 -13
-2 -19 9 -19 26 0 18 66 -10 79 -29 13 -23 51 7 44 17 -5 19 -1 17 26 -2 29
-3 30 -25 16 -24 -16 -31 -7 -11 13 7 7 13 22 13 35 0 12 6 21 13 19 16 -3 15
6 -3 25 -8 8 -12 20 -8 26 4 6 6 34 4 61 -1 33 2 46 7 38 7 -11 11 -10 16 4 7
20 -3 84 -14 84 -4 0 -5 23 -2 52 5 50 4 51 -19 45 -23 -6 -23 -5 4 16 32 27
34 37 7 37 -11 0 -20 5 -20 10 0 6 6 10 13 10 14 0 18 72 4 86 -4 4 0 16 9 25
15 17 15 21 1 51 -16 31 -16 34 3 47 16 10 17 17 9 33 -6 11 -8 22 -5 26 3 3
-1 14 -10 24 -14 14 -14 20 -4 33 7 8 9 22 5 32 -4 10 -9 30 -11 46 -3 21 0
27 15 27 14 0 18 5 14 20 -3 11 -9 20 -14 20 -5 0 -9 5 -9 10 0 6 7 10 16 8
10 -2 19 3 21 10 3 7 -4 12 -16 12 -12 0 -21 5 -21 10 0 6 4 10 10 10 10 0 8
105 -3 116 -13 13 -7 44 8 44 19 0 19 9 1 29 -10 11 -12 26 -7 51 4 21 2 58
-5 90 -7 30 -9 57 -5 60 12 9 7 50 -6 50 -15 0 -17 26 -3 35 16 10 12 45 -5
45 -8 0 -15 7 -15 16 0 13 3 14 14 5 9 -8 16 -8 20 -2 13 20 15 223 3 242 -9
14 -9 21 1 31 15 15 16 54 2 63 -13 8 -13 45 -1 45 6 0 6 12 1 30 -7 23 -5 32
8 40 14 8 12 10 -13 10 -16 1 -23 4 -15 7 31 11 41 25 29 39 -6 7 -7 19 -3 26
5 7 7 23 5 36 -1 13 3 30 9 37 10 12 9 16 -4 21 -13 5 -14 9 -5 20 9 11 8 18
-1 29 -7 8 -8 15 -2 15 16 0 -13 72 -37 91 -22 18 -28 39 -11 39 6 0 10 -7 10
-16 0 -9 5 -14 12 -12 12 4 17 67 6 74 -4 3 -5 18 -1 34 4 23 2 30 -10 30 -14
0 -14 5 3 44 10 24 16 47 12 51 -4 3 0 11 8 16 11 8 12 12 3 16 -7 2 -13 11
-13 19 0 8 -4 14 -10 14 -5 0 -10 7 -10 16 0 14 1 14 16 0 15 -16 49 -23 41
-8 -2 4 -12 24 -22 44 -9 20 -24 39 -33 41 -12 3 -11 5 4 6 35 2 43 61 8 61
-8 0 -14 5 -14 10 0 6 12 10 28 10 21 0 24 2 12 10 -11 7 -7 10 20 11 30 2 28
3 -15 9 l-50 7 55 2 c30 1 64 6 75 10 46 18 -1212 27 -1655 11z m1527 -362
c-3 -7 -5 -2 -5 12 0 14 2 19 5 13 2 -7 2 -19 0 -25z m-1582 2 c3 -5 1 -10 -4
-10 -6 0 -11 5 -11 10 0 6 2 10 4 10 3 0 8 -4 11 -10z m1585 -86 c0 -8 -5 -12
-10 -9 -6 4 -8 11 -5 16 9 14 15 11 15 -7z m0 -34 c0 -5 -2 -10 -4 -10 -3 0
-8 5 -11 10 -3 6 -1 10 4 10 6 0 11 -4 11 -10z m-1580 -254 c0 -3 -4 -8 -10
-11 -5 -3 -10 -1 -10 4 0 6 5 11 10 11 6 0 10 -2 10 -4z m1587 -28 c-3 -8 -6
-5 -6 6 -1 11 2 17 5 13 3 -3 4 -12 1 -19z m0 -260 c-3 -8 -6 -5 -6 6 -1 11 2
17 5 13 3 -3 4 -12 1 -19z m-1600 -270 c-3 -8 -6 -5 -6 6 -1 11 2 17 5 13 3
-3 4 -12 1 -19z m1590 -90 c-3 -8 -6 -5 -6 6 -1 11 2 17 5 13 3 -3 4 -12 1
-19z m0 -160 c-3 -7 -5 -2 -5 12 0 14 2 19 5 13 2 -7 2 -19 0 -25z m0 -210
c-3 -7 -5 -2 -5 12 0 14 2 19 5 13 2 -7 2 -19 0 -25z m-1594 -575 c-6 -14 -33
-18 -33 -5 0 12 8 19 24 19 8 0 12 -6 9 -14z m-3 -73 c0 -5 -7 -7 -15 -4 -8 4
-15 8 -15 10 0 2 7 4 15 4 8 0 15 -4 15 -10z m1615 -99 c3 -5 1 -12 -5 -16 -5
-3 -10 1 -10 9 0 18 6 21 15 7z m-15 -41 c0 -5 -5 -10 -11 -10 -5 0 -7 5 -4
10 3 6 8 10 11 10 2 0 4 -4 4 -10z m26 -88 c-4 -3 -11 -1 -18 6 -8 8 -8 15 3
28 13 16 14 16 17 -5 2 -13 1 -25 -2 -29z m-1613 -533 c-8 -16 -17 -28 -20
-25 -6 5 23 56 31 56 3 0 -2 -14 -11 -31z m7 -59 c0 -5 -4 -10 -10 -10 -5 0
-10 5 -10 10 0 6 5 10 10 10 6 0 10 -4 10 -10z m1597 -126 c-3 -3 -12 -4 -19
-1 -8 3 -5 6 6 6 11 1 17 -2 13 -5z m-1610 -121 c-3 -10 -5 -4 -5 12 0 17 2
24 5 18 2 -7 2 -21 0 -30z m1593 -33 c0 -5 -4 -10 -10 -10 -5 0 -10 5 -10 10
0 6 5 10 10 10 6 0 10 -4 10 -10z m-3 -382 c-3 -8 -6 -5 -6 6 -1 11 2 17 5 13
3 -3 4 -12 1 -19z m-1577 -332 c0 -8 -4 -18 -10 -21 -5 -3 -10 3 -10 14 0 12
5 21 10 21 6 0 10 -6 10 -14z m1587 -198 c-3 -8 -6 -5 -6 6 -1 11 2 17 5 13 3
-3 4 -12 1 -19z"/>
<path d="M6998 2803 c7 -3 16 -2 19 1 4 3 -2 6 -13 5 -11 0 -14 -3 -6 -6z"/>
<path d="M5330 2785 c0 -8 5 -15 10 -15 6 0 10 7 10 15 0 8 -4 15 -10 15 -5 0
-10 -7 -10 -15z"/>
<path d="M7007 2485 c-4 -8 -3 -16 1 -19 4 -3 9 4 9 15 2 23 -3 25 -10 4z"/>
<path d="M5320 2336 c0 -9 5 -16 10 -16 6 0 10 4 10 9 0 6 -4 13 -10 16 -5 3
-10 -1 -10 -9z"/>
<path d="M7000 2320 c0 -5 5 -10 11 -10 5 0 7 5 4 10 -3 6 -8 10 -11 10 -2 0
-4 -4 -4 -10z"/>
<path d="M5330 1541 c0 -5 -3 -18 -7 -28 -6 -17 -6 -17 10 -1 19 18 22 38 7
38 -5 0 -10 -4 -10 -9z"/>
<path d="M5342 1267 c-9 -11 -10 -17 -2 -22 15 -9 23 -1 18 21 -3 15 -4 16
-16 1z"/>
<path d="M6990 420 c0 -5 5 -10 10 -10 6 0 10 5 10 10 0 6 -4 10 -10 10 -5 0
-10 -4 -10 -10z"/>
</g>
</svg>
